<svg width="28" height="16" viewBox="0 0 28 16" fill="none" xmlns="http://www.w3.org/2000/svg">
    <g clip-path="url(#clip0)">
        <path d="M4.00065 7.33317C3.26732 7.33317 2.66732 6.73317 2.66732 5.99984C2.66732 5.2665 3.26732 4.6665 4.00065 4.6665C4.73399 4.6665 5.33399 5.2665 5.33399 5.99984C5.33399 6.73317 4.73399 7.33317 4.00065 7.33317ZM9.33399 5.99984C9.33399 5.2665 8.73399 4.6665 8.00065 4.6665C7.26732 4.6665 6.66732 5.2665 6.66732 5.99984C6.66732 6.73317 7.26732 7.33317 8.00065 7.33317C8.73399 7.33317 9.33399 6.73317 9.33399 5.99984ZM13.334 5.99984C13.334 5.2665 12.734 4.6665 12.0007 4.6665C11.2673 4.6665 10.6673 5.2665 10.6673 5.99984C10.6673 6.73317 11.2673 7.33317 12.0007 7.33317C12.734 7.33317 13.334 6.73317 13.334 5.99984ZM10.6673 9.99984C10.6673 10.7332 11.2673 11.3332 12.0007 11.3332C12.734 11.3332 13.334 10.7332 13.334 9.99984C13.334 9.2665 12.734 8.6665 12.0007 8.6665C11.2673 8.6665 10.6673 9.2665 10.6673 9.99984ZM9.33399 9.99984C9.33399 9.2665 8.73399 8.6665 8.00065 8.6665C7.26732 8.6665 6.66732 9.2665 6.66732 9.99984C6.66732 10.7332 7.26732 11.3332 8.00065 11.3332C8.73399 11.3332 9.33399 10.7332 9.33399 9.99984ZM5.33399 9.99984C5.33399 9.2665 4.73399 8.6665 4.00065 8.6665C3.26732 8.6665 2.66732 9.2665 2.66732 9.99984C2.66732 10.7332 3.26732 11.3332 4.00065 11.3332C4.73399 11.3332 5.33399 10.7332 5.33399 9.99984Z" fill="#C5C7CB"/>
        <path d="M16.3327 7.33317C15.5994 7.33317 14.9994 6.73317 14.9994 5.99984C14.9994 5.2665 15.5994 4.6665 16.3327 4.6665C17.066 4.6665 17.666 5.2665 17.666 5.99984C17.666 6.73317 17.066 7.33317 16.3327 7.33317ZM21.666 5.99984C21.666 5.2665 21.066 4.6665 20.3327 4.6665C19.5994 4.6665 18.9994 5.2665 18.9994 5.99984C18.9994 6.73317 19.5994 7.33317 20.3327 7.33317C21.066 7.33317 21.666 6.73317 21.666 5.99984ZM25.666 5.99984C25.666 5.2665 25.066 4.6665 24.3327 4.6665C23.5993 4.6665 22.9993 5.2665 22.9993 5.99984C22.9993 6.73317 23.5993 7.33317 24.3327 7.33317C25.066 7.33317 25.666 6.73317 25.666 5.99984ZM22.9993 9.99984C22.9993 10.7332 23.5993 11.3332 24.3327 11.3332C25.066 11.3332 25.666 10.7332 25.666 9.99984C25.666 9.2665 25.066 8.6665 24.3327 8.6665C23.5993 8.6665 22.9993 9.2665 22.9993 9.99984ZM21.666 9.99984C21.666 9.2665 21.066 8.6665 20.3327 8.6665C19.5994 8.6665 18.9994 9.2665 18.9994 9.99984C18.9994 10.7332 19.5994 11.3332 20.3327 11.3332C21.066 11.3332 21.666 10.7332 21.666 9.99984ZM17.666 9.99984C17.666 9.2665 17.066 8.6665 16.3327 8.6665C15.5994 8.6665 14.9994 9.2665 14.9994 9.99984C14.9994 10.7332 15.5994 11.3332 16.3327 11.3332C17.066 11.3332 17.666 10.7332 17.666 9.99984Z" fill="#C5C7CB"/>
    </g>
    <defs>
        <clipPath id="clip0">
            <rect width="16" height="28" fill="white" transform="translate(28) rotate(90)"/>
        </clipPath>
    </defs>
</svg>
