<svg width="673" height="97" viewBox="0 0 673 97" fill="none" xmlns="http://www.w3.org/2000/svg">
    <path d="M651.464 29.8872C657.944 29.8872 663.024 31.8272 666.704 35.7072C670.384 39.5472 672.224 45.6272 672.224 53.9472V96.0072H662.384V54.4272C662.384 48.8272 661.224 44.8072 658.904 42.3672C656.584 39.8872 653.324 38.6472 649.124 38.6472C646.124 38.6472 643.144 39.3072 640.184 40.6272C637.224 41.9472 634.644 44.0272 632.444 46.8672C632.804 48.9072 632.983 51.1872 632.983 53.7072V96.0072H623.324V54.4272C623.324 48.7872 622.204 44.7472 619.964 42.3072C617.724 39.8672 614.544 38.6472 610.424 38.6472C607.264 38.6472 604.184 39.3872 601.184 40.8672C598.184 42.3072 595.604 44.5072 593.444 47.4672V96.0072H583.604V29.7739H591.884L592.604 38.4072H593.264C595.824 35.6472 598.804 33.5472 602.204 32.1072C605.604 30.6272 609.224 29.8872 613.064 29.8872C621.264 29.8872 626.963 33.0472 630.163 39.3672C633.243 36.0872 636.623 33.6872 640.303 32.1672C643.983 30.6472 647.704 29.8872 651.464 29.8872Z" fill="#00C0B5"/>
    <path d="M561.389 96.0073V29.7706H571.289V96.0073H561.389ZM566.369 20.9072C564.169 20.9072 562.469 20.3672 561.269 19.2872C560.109 18.2072 559.529 16.7072 559.529 14.7872C559.529 12.8272 560.109 11.3072 561.269 10.2272C562.469 9.14717 564.169 8.60718 566.369 8.60718C568.569 8.60718 570.249 9.14717 571.409 10.2272C572.609 11.3072 573.209 12.8272 573.209 14.7872C573.209 16.7072 572.609 18.2072 571.409 19.2872C570.249 20.3672 568.569 20.9072 566.369 20.9072Z" fill="#00C0B5"/>
    <path d="M515.561 96.0072C511.429 96.0072 507.192 95.67 502.849 94.9954C498.549 94.3208 494.502 93.3301 490.707 92.0231V82.9798C494.797 84.3711 498.992 85.404 503.292 86.0786C507.592 86.7531 511.703 87.0904 515.624 87.0904C531.898 87.0904 540.034 81.3567 540.034 69.8892C540.034 66.7272 539.36 64.1132 538.011 62.0474C536.704 59.9394 534.617 58.1898 531.75 56.7985C528.883 55.3651 524.983 54.1003 520.051 53.0041L514.612 51.8025C505.927 49.8632 499.498 46.8277 495.324 42.696C491.192 38.5222 489.126 33.0414 489.126 26.2536C489.126 20.815 490.433 16.1352 493.047 12.2143C495.661 8.29346 499.561 5.27903 504.746 3.17103C509.974 1.06303 516.425 0.0090332 524.098 0.0090332C532.066 0.0090332 539.507 1.04195 546.422 3.10779V12.1511C539.381 10.0009 532.024 8.92586 524.351 8.92586C516.045 8.92586 509.869 10.3804 505.822 13.2894C501.774 16.1563 499.751 20.288 499.751 25.6844C499.751 28.8043 500.341 31.3971 501.521 33.463C502.702 35.5288 504.62 37.2784 507.276 38.7119C509.932 40.1453 513.537 41.3679 518.09 42.3798L523.529 43.6446C532.973 45.7104 539.845 48.7881 544.145 52.8776C548.487 56.9671 550.659 62.4268 550.659 69.2568C550.659 74.9062 549.288 79.7335 546.548 83.7387C543.808 87.7439 539.803 90.8005 534.533 92.9085C529.305 94.9743 522.981 96.0072 515.561 96.0072Z" fill="#00C0B5"/>
    <path d="M467.182 87.5472C469.462 87.5472 472.362 87.1872 475.882 86.4672V94.7472C472.162 95.5872 468.542 96.0072 465.022 96.0072C457.702 96.0072 452.122 94.1672 448.282 90.4872C444.442 86.7672 442.522 81.1072 442.522 73.5072V37.8672H429.682V29.7672H442.522L444.202 0.00907022H452.362V29.7672H474.862V37.8672H452.362V71.8872C452.362 77.4872 453.582 81.5072 456.022 83.9472C458.462 86.3472 462.182 87.5472 467.182 87.5472Z" fill="white"/>
    <path d="M393.58 29.7671C399.54 29.7671 404.44 30.5156 408.28 32.0125C412.12 33.4701 415 35.9125 416.92 39.3397C418.88 42.7669 419.86 47.3957 419.86 53.2259V96.0072H411.64L410.92 87.6164H410.26C408.02 90.2164 405.1 92.2648 401.5 93.7618C397.9 95.2193 394.08 95.9481 390.04 95.9481C385.72 95.9481 382 95.239 378.88 93.8209C375.8 92.4027 373.44 90.3739 371.8 87.7346C370.16 85.0952 369.34 81.9831 369.34 78.3983C369.34 72.8044 371.3 68.4712 375.22 65.3985C379.14 62.2864 385.4 60.3167 394 59.4895L410.2 57.7758V52.8123C410.2 48.9123 409.54 45.8593 408.22 43.6533C406.94 41.4472 405 39.8912 402.4 38.9852C399.84 38.0791 396.5 37.6261 392.38 37.6261C389.5 37.6261 386.42 37.8821 383.14 38.3943C379.86 38.867 376.68 39.6155 373.6 40.6397V32.7807C376.44 31.7958 379.64 31.0474 383.2 30.5353C386.76 30.0231 390.22 29.7671 393.58 29.7671ZM392.44 88.5027C395.76 88.5027 398.94 87.8724 401.98 86.6119C405.06 85.3119 407.8 83.3816 410.2 80.821V64.2167L394.66 65.8712C389.22 66.5015 385.3 67.7621 382.9 69.653C380.5 71.5045 379.3 74.1438 379.3 77.5711C379.3 81.0771 380.4 83.7755 382.6 85.6664C384.8 87.5573 388.08 88.5027 392.44 88.5027Z" fill="white"/>
    <path d="M326.583 29.7698H334.803L335.643 39.0348H336.243C338.563 36.104 341.543 33.8267 345.183 32.2028C348.863 30.579 352.683 29.7671 356.643 29.7671C358.683 29.7671 360.683 29.9453 362.643 30.3018V39.3318C360.843 39.015 358.683 38.8565 356.163 38.8565C352.643 38.8565 349.043 39.609 345.363 41.114C341.723 42.6191 338.743 44.8172 336.423 47.7084V96.0073H326.583V29.7698Z" fill="white"/>
    <path d="M286.341 29.7671C292.301 29.7671 297.201 30.5156 301.041 32.0125C304.881 33.4701 307.761 35.9125 309.681 39.3397C311.641 42.7669 312.621 47.3957 312.621 53.2259V96.0072H304.401L303.681 87.6164H303.021C300.781 90.2164 297.861 92.2648 294.261 93.7618C290.661 95.2193 286.841 95.9481 282.801 95.9481C278.481 95.9481 274.761 95.239 271.641 93.8209C268.561 92.4027 266.201 90.3739 264.561 87.7346C262.921 85.0952 262.101 81.9831 262.101 78.3983C262.101 72.8044 264.061 68.4712 267.981 65.3985C271.901 62.2864 278.161 60.3167 286.761 59.4895L302.961 57.7758V52.8123C302.961 48.9123 302.301 45.8593 300.981 43.6533C299.701 41.4472 297.761 39.8912 295.161 38.9852C292.601 38.0791 289.261 37.6261 285.141 37.6261C282.261 37.6261 279.181 37.8821 275.901 38.3943C272.621 38.867 269.441 39.6155 266.361 40.6397V32.7807C269.201 31.7958 272.401 31.0474 275.961 30.5353C279.521 30.0231 282.981 29.7671 286.341 29.7671ZM285.201 88.5027C288.521 88.5027 291.701 87.8724 294.741 86.6118C297.821 85.3119 300.561 83.3816 302.961 80.821V64.2167L287.421 65.8712C281.981 66.5015 278.061 67.7621 275.661 69.653C273.261 71.5045 272.061 74.1438 272.061 77.5711C272.061 81.0771 273.161 83.7755 275.361 85.6664C277.561 87.5573 280.841 88.5027 285.201 88.5027Z" fill="white"/>
    <path d="M197.433 0H207.273V38.109H207.873C210.713 35.389 213.973 33.329 217.653 31.929C221.373 30.489 225.353 29.769 229.593 29.769C236.473 29.769 241.873 31.689 245.793 35.529C249.753 39.369 251.733 45.449 251.733 53.769V96.0073H241.893V54.309C241.893 48.709 240.593 44.689 237.993 42.249C235.393 39.809 231.673 38.589 226.833 38.589C223.233 38.589 219.693 39.309 216.213 40.749C212.733 42.149 209.753 44.269 207.273 47.109V96.0073H197.433L197.433 0Z" fill="white"/>
    <path d="M168.289 46.5759C174.778 47.7634 179.656 50.3294 182.921 54.2737C186.187 58.2181 187.82 63.2651 187.82 69.4149C187.82 75.3102 186.378 80.2088 183.494 84.1107C180.652 88.0126 176.072 90.9815 169.752 93.0173C163.475 95.0106 155.205 96.0073 144.941 96.0073C136.798 96.0073 128.485 95.4348 120.003 94.2896V2.80653C129.079 0.940391 138.325 0.00732422 147.741 0.00732422C160.719 0.00732422 170.198 2.08552 176.178 6.24191C182.158 10.3983 185.148 16.7389 185.148 25.2638C185.148 30.6501 183.748 35.2094 180.949 38.9417C178.15 42.674 173.93 45.2187 168.289 46.5759ZM148.758 8.40494C141.76 8.40494 135.653 8.89267 130.436 9.86815V42.6316H151.303C159.489 42.6316 165.49 41.2744 169.307 38.56C173.124 35.8032 175.033 31.4984 175.033 25.6455C175.033 21.5315 174.142 18.2234 172.361 15.721C170.622 13.1763 167.823 11.3314 163.963 10.1862C160.146 8.99871 155.078 8.40494 148.758 8.40494ZM147.104 87.6097C154.823 87.6097 160.909 86.9311 165.363 85.5739C169.858 84.2167 173.039 82.1809 174.906 79.4666C176.814 76.7522 177.768 73.2532 177.768 68.9696C177.768 62.8198 175.733 58.3241 171.661 55.4825C167.632 52.5984 161.312 51.1564 152.703 51.1564H130.436V86.5918C135.186 87.2704 140.742 87.6097 147.104 87.6097Z" fill="white"/>
    <circle cx="28" cy="68.0073" r="4" fill="#CA7EC2"/>
    <circle cx="8" cy="48.0073" r="4" fill="#CA7EC2"/>
    <circle cx="28" cy="28.0073" r="4" fill="#CA7EC2"/>
    <circle cx="48" cy="48.0073" r="4" fill="#CA7EC2"/>
    <circle cx="68" cy="28.0073" r="4" fill="#CA7EC2"/>
    <circle cx="48" cy="88.0073" r="4" fill="#CA7EC2"/>
    <circle cx="68" cy="68.0073" r="4" fill="#CA7EC2"/>
    <circle cx="48" cy="8.00732" r="4" fill="#CA7EC2"/>
    <circle cx="8" cy="8.00732" r="4" fill="#CA7EC2"/>
    <circle cx="8" cy="88.0073" r="4" fill="#CA7EC2"/>
    <circle cx="88" cy="88.0073" r="4" fill="#CA7EC2"/>
    <circle cx="88" cy="8.00732" r="4" fill="#CA7EC2"/>
    <circle cx="88" cy="48.0073" r="4" fill="#CA7EC2"/>
    <path d="M0 28.0073C0 23.589 3.58172 20.0073 8 20.0073H16V28.0073C16 32.4256 12.4183 36.0073 8 36.0073C3.58172 36.0073 0 32.4256 0 28.0073Z" fill="#00C0B5"/>
    <path d="M0 68.0073C0 63.589 3.58172 60.0073 8 60.0073C12.4183 60.0073 16 63.589 16 68.0073V76.0073H8C3.58172 76.0073 0 72.4256 0 68.0073Z" fill="#00C0B5"/>
    <path d="M20 8.00732C20 3.58905 23.5817 0.00732422 28 0.00732422C32.4183 0.00732422 36 3.58905 36 8.00732V16.0073H20V8.00732Z" fill="#00C0B5"/>
    <path d="M20 48.0073C20 43.589 23.5817 40.0073 28 40.0073H36V56.0073H28C23.5817 56.0073 20 52.4256 20 48.0073Z" fill="#00C0B5"/>
    <path d="M20 80.0073H36V88.0073C36 92.4256 32.4183 96.0073 28 96.0073C23.5817 96.0073 20 92.4256 20 88.0073V80.0073Z" fill="#00C0B5"/>
    <rect x="40" y="20.0073" width="16" height="16" fill="#00C0B5"/>
    <path d="M40 60.0073H48C52.4183 60.0073 56 63.589 56 68.0073V76.0073H40V60.0073Z" fill="#00C0B5"/>
    <path d="M60 8.00732C60 3.58905 63.5817 0.00732422 68 0.00732422C72.4183 0.00732422 76 3.58905 76 8.00732V16.0073H60V8.00732Z" fill="#00C0B5"/>
    <path d="M60 40.0073H68C72.4183 40.0073 76 43.589 76 48.0073V56.0073H68C63.5817 56.0073 60 52.4256 60 48.0073V40.0073Z" fill="#00C0B5"/>
    <path d="M60 80.0073H76V88.0073C76 92.4256 72.4183 96.0073 68 96.0073C63.5817 96.0073 60 92.4256 60 88.0073V80.0073Z" fill="#00C0B5"/>
    <path d="M80 20.0073H88C92.4183 20.0073 96 23.589 96 28.0073C96 32.4256 92.4183 36.0073 88 36.0073C83.5817 36.0073 80 32.4256 80 28.0073V20.0073Z" fill="#00C0B5"/>
    <path d="M80 60.0073H88C92.4183 60.0073 96 63.589 96 68.0073C96 72.4256 92.4183 76.0073 88 76.0073H80V60.0073Z" fill="#00C0B5"/>
    <path d="M8 22.0073H10.6863C12.808 22.0073 14.8429 21.1645 16.3431 19.6642L19.6569 16.3505C21.1571 14.8502 22 12.8153 22 10.6936V8.00732" stroke="#00C0B5" stroke-width="4"/>
    <path d="M28 14.0073L25.3137 14.0073C23.192 14.0073 21.1571 14.8502 19.6569 16.3505L16.3431 19.6642C14.8429 21.1645 14 23.1993 14 25.321L14 28.0073" stroke="#00C0B5" stroke-width="4"/>
    <path d="M68 82.0073H70.6863C72.808 82.0073 74.8429 81.1645 76.3431 79.6642L79.6569 76.3505C81.1571 74.8502 82 72.8153 82 70.6936V68.0073" stroke="#00C0B5" stroke-width="4"/>
    <path d="M88 74.0073L85.3137 74.0073C83.192 74.0073 81.1571 74.8502 79.6569 76.3505L76.3431 79.6642C74.8429 81.1645 74 83.1993 74 85.321L74 88.0073" stroke="#00C0B5" stroke-width="4"/>
    <path d="M28 42.0073H30.6863C32.808 42.0073 34.8429 41.1645 36.3431 39.6642L39.6569 36.3505C41.1571 34.8502 42 32.8153 42 30.6936V28.0073" stroke="#00C0B5" stroke-width="4"/>
    <path d="M48 34.0073L45.3137 34.0073C43.192 34.0073 41.1571 34.8502 39.6569 36.3505L36.3431 39.6642C34.8429 41.1645 34 43.1993 34 45.321L34 48.0073" stroke="#00C0B5" stroke-width="4"/>
    <path d="M28 82.0073H30.6863C32.808 82.0073 34.8429 81.1645 36.3431 79.6642L39.6569 76.3505C41.1571 74.8502 42 72.8153 42 70.6936V68.0073" stroke="#00C0B5" stroke-width="4"/>
    <path d="M48 74.0073L45.3137 74.0073C43.192 74.0073 41.1571 74.8502 39.6569 76.3505L36.3431 79.6642C34.8429 81.1645 34 83.1993 34 85.321L34 88.0073" stroke="#00C0B5" stroke-width="4"/>
    <path d="M34 8.00732L34 10.6936C34 12.8153 34.8429 14.8502 36.3431 16.3505L39.6569 19.6642C41.1571 21.1645 43.192 22.0073 45.3137 22.0073L48 22.0073" stroke="#00C0B5" stroke-width="4"/>
    <path d="M42 28.0073L42 25.321C42 23.1993 41.1571 21.1645 39.6569 19.6642L36.3431 16.3505C34.8429 14.8502 32.808 14.0073 30.6863 14.0073L28 14.0073" stroke="#00C0B5" stroke-width="4"/>
    <path d="M54 28.0073L54 30.6936C54 32.8153 54.8429 34.8502 56.3431 36.3505L59.6569 39.6642C61.1571 41.1645 63.192 42.0073 65.3137 42.0073L68 42.0073" stroke="#00C0B5" stroke-width="4"/>
    <path d="M62 48.0073L62 45.321C62 43.1993 61.1571 41.1645 59.6569 39.6642L56.3431 36.3505C54.8429 34.8502 52.808 34.0073 50.6863 34.0073L48 34.0073" stroke="#00C0B5" stroke-width="4"/>
    <path d="M34 48.0073L34 50.6936C34 52.8153 34.8429 54.8502 36.3431 56.3505L39.6569 59.6642C41.1571 61.1645 43.192 62.0073 45.3137 62.0073L48 62.0073" stroke="#00C0B5" stroke-width="4"/>
    <path d="M42 68.0073L42 65.321C42 63.1993 41.1571 61.1645 39.6569 59.6642L36.3431 56.3505C34.8429 54.8502 32.808 54.0073 30.6863 54.0073L28 54.0073" stroke="#00C0B5" stroke-width="4"/>
    <path d="M74 8.00732L74 10.6936C74 12.8153 74.8429 14.8502 76.3431 16.3505L79.6569 19.6642C81.1571 21.1645 83.192 22.0073 85.3137 22.0073L88 22.0073" stroke="#00C0B5" stroke-width="4"/>
    <path d="M82 28.0073L82 25.321C82 23.1993 81.1571 21.1645 79.6569 19.6642L76.3431 16.3505C74.8429 14.8502 72.808 14.0073 70.6863 14.0073L68 14.0073" stroke="#00C0B5" stroke-width="4"/>
    <path d="M74 48.0073L74 50.6936C74 52.8153 74.8429 54.8502 76.3431 56.3505L79.6569 59.6642C81.1571 61.1645 83.192 62.0073 85.3137 62.0073L88 62.0073" stroke="#00C0B5" stroke-width="4"/>
    <path d="M82 68.0073L82 65.321C82 63.1993 81.1571 61.1645 79.6569 59.6642L76.3431 56.3505C74.8429 54.8502 72.808 54.0073 70.6863 54.0073L68 54.0073" stroke="#00C0B5" stroke-width="4"/>
    <path d="M54 68.0073L54 70.6936C54 72.8153 54.8429 74.8502 56.3431 76.3505L59.6569 79.6642C61.1571 81.1645 63.192 82.0073 65.3137 82.0073L68 82.0073" stroke="#00C0B5" stroke-width="4"/>
    <path d="M62 88.0073L62 85.321C62 83.1993 61.1571 81.1645 59.6569 79.6642L56.3431 76.3505C54.8429 74.8502 52.808 74.0073 50.6863 74.0073L48 74.0073" stroke="#00C0B5" stroke-width="4"/>
    <path d="M14 68.0073L14 70.6936C14 72.8153 14.8429 74.8502 16.3431 76.3505L19.6569 79.6642C21.1571 81.1645 23.192 82.0073 25.3137 82.0073L28 82.0073" stroke="#00C0B5" stroke-width="4"/>
    <path d="M22 88.0073L22 85.321C22 83.1993 21.1571 81.1645 19.6569 79.6642L16.3431 76.3505C14.8429 74.8502 12.808 74.0073 10.6863 74.0073L8 74.0073" stroke="#00C0B5" stroke-width="4"/>
    <path d="M48 22.0073H50.6863C52.808 22.0073 54.8429 21.1645 56.3431 19.6642L59.6569 16.3505C61.1571 14.8502 62 12.8153 62 10.6936V8.00732" stroke="#00C0B5" stroke-width="4"/>
    <path d="M68 14.0073L65.3137 14.0073C63.192 14.0073 61.1571 14.8502 59.6569 16.3505L56.3431 19.6642C54.8429 21.1645 54 23.1993 54 25.321L54 28.0073" stroke="#00C0B5" stroke-width="4"/>
</svg>
