<svg width="503" height="169" viewBox="0 0 503 169" fill="none" xmlns="http://www.w3.org/2000/svg">
<rect x="0.5" y="0.5" width="502" height="165" rx="3.5" fill="#F0EEF9" stroke="#F0EEF9"/>
<rect x="153" y="47" width="13" height="63" fill="#7769C5"/>
<rect x="129" y="73" width="13" height="37" fill="#7769C5"/>
<rect x="177" y="43" width="13" height="67" fill="#7769C5"/>
<rect x="201" y="17" width="13" height="93" fill="#7769C5"/>
<rect x="225" y="53" width="13" height="57" fill="#7769C5"/>
<circle cx="238" cy="94" r="56" fill="white"/>
<path d="M237.535 138.724C261.959 138.724 281.759 118.924 281.759 94.5C281.759 70.0757 261.959 50.2759 237.535 50.2759V138.724Z" fill="#D2CDEB"/>
<path d="M281.759 94.5C281.759 70.0757 261.959 50.2759 237.535 50.2759V94.5H281.759Z" fill="#B4ABDF"/>
<path d="M237.535 50.2759V94.5L269.591 64.0345C261.534 55.5594 250.152 50.2759 237.535 50.2759Z" fill="#B4ABDF"/>
<path d="M237.535 50.2758C213.11 50.2758 193.311 70.0757 193.311 94.5C193.311 118.924 213.11 138.724 237.535 138.724L237.535 50.2758Z" fill="#594AB7"/>
<path d="M193.311 94.5C193.311 118.924 213.11 138.724 237.535 138.724L237.535 94.5L193.311 94.5Z" fill="#594AB7"/>
<path d="M237.535 138.724L237.535 94.5L205.478 124.965C213.535 133.441 224.918 138.724 237.535 138.724Z" fill="#D2CDEB"/>
<path d="M268.655 94.5005C268.655 77.313 254.722 63.3798 237.534 63.3798C220.347 63.3798 206.414 77.313 206.414 94.5005L237.534 94.5004L268.655 94.5005Z" fill="white"/>
<path d="M206.414 94.1724C206.414 111.36 220.347 125.293 237.535 125.293C254.722 125.293 268.655 111.36 268.655 94.1724L237.535 94.1724L206.414 94.1724Z" fill="white"/>
<circle cx="238" cy="94" r="22" fill="#7769C5"/>
<path fill-rule="evenodd" clip-rule="evenodd" d="M236.645 85.6553V92.9558H229.345V95.3893H236.645V102.69H239.079V95.3893H246.379V92.9558H239.079V85.6553H236.645Z" fill="white"/>
<path d="M135 86L159 57L183.5 54L208 28" stroke="#413288"/>
<circle cx="135.5" cy="83.5" r="2" fill="white" stroke="#413288"/>
<circle cx="183.5" cy="53.5" r="2" fill="white" stroke="#413288"/>
<circle cx="208.5" cy="27.5" r="2" fill="white" stroke="#413288"/>
<circle cx="159.5" cy="56.5" r="2" fill="white" stroke="#413288"/>
<path opacity="0.3" d="M503 80.0331V169H0V4.70363C9.27571 2.83403 18.5999 2.3048 28.2088 4.12569C38.6111 6.48443 49.4003 11.9233 60.3894 17.463C72.1216 23.3772 84.0815 29.4062 96.0415 31.9245C107.637 34.2909 119.714 32.6881 131.753 31.0902C142.044 29.7244 152.308 28.3622 162.22 29.486C183.659 31.743 203.68 43.6099 224.908 56.1918C226.614 57.2033 228.329 58.2194 230.052 59.2356C232.077 60.4292 234.089 61.6228 236.09 62.8103C256.987 75.2076 276.747 86.9303 297.885 90.9359C319.393 95.8129 342.555 90.936 364.063 84.1082C369.457 82.5183 374.76 80.7962 380.016 79.0897C397.332 73.4674 414.127 68.0141 431.896 68.0141C445.15 68.0141 457.862 71.0482 470.652 74.1009C480.214 76.3831 489.82 78.6757 499.728 79.7189C500.815 79.8421 501.905 79.9466 503 80.0331Z" fill="url(#paint0_linear)"/>
<defs>
<linearGradient id="paint0_linear" x1="251.5" y1="3" x2="251.5" y2="169" gradientUnits="userSpaceOnUse">
<stop stop-color="#694ED6"/>
<stop offset="1" stop-color="#FCFCFC" stop-opacity="0"/>
</linearGradient>
</defs>
</svg>
