<svg width="5" height="17" viewBox="0 0 5 17" fill="none" xmlns="http://www.w3.org/2000/svg">
<path d="M2.71958 4.85239C3.71692 4.85239 4.53292 3.98033 4.53292 2.91447C4.53292 1.84862 3.71692 0.976562 2.71958 0.976562C1.72225 0.976562 0.90625 1.84862 0.90625 2.91447C0.90625 3.98033 1.72225 4.85239 2.71958 4.85239ZM2.71958 6.7903C1.72225 6.7903 0.90625 7.66236 0.90625 8.72821C0.90625 9.79406 1.72225 10.6661 2.71958 10.6661C3.71692 10.6661 4.53292 9.79406 4.53292 8.72821C4.53292 7.66236 3.71692 6.7903 2.71958 6.7903ZM2.71958 12.604C1.72225 12.604 0.90625 13.4761 0.90625 14.542C0.90625 15.6078 1.72225 16.4799 2.71958 16.4799C3.71692 16.4799 4.53292 15.6078 4.53292 14.542C4.53292 13.4761 3.71692 12.604 2.71958 12.604Z" fill="#8997B1"/>
</svg>
