<svg width="331" height="332" viewBox="0 0 331 332" fill="none" xmlns="http://www.w3.org/2000/svg">
    <path d="M93.9319 250.803C101.331 250.803 107.329 244.805 107.329 237.405C107.329 230.006 101.331 224.008 93.9319 224.008C86.5328 224.008 80.5345 230.006 80.5345 237.405C80.5345 244.805 86.5328 250.803 93.9319 250.803Z" fill="#CA7EC2"/>
    <path d="M93.9319 250.803C101.331 250.803 107.329 244.805 107.329 237.405C107.329 230.006 101.331 224.008 93.9319 224.008C86.5328 224.008 80.5345 230.006 80.5345 237.405C80.5345 244.805 86.5328 250.803 93.9319 250.803Z" stroke="#CA7EC2"/>
    <path d="M31.4194 179.355C38.8186 179.355 44.8168 173.357 44.8168 165.957C44.8168 158.558 38.8186 152.56 31.4194 152.56C24.0202 152.56 18.022 158.558 18.022 165.957C18.022 173.357 24.0202 179.355 31.4194 179.355Z" fill="#CA7EC2"/>
    <path d="M31.4194 179.355C38.8186 179.355 44.8168 173.357 44.8168 165.957C44.8168 158.558 38.8186 152.56 31.4194 152.56C24.0202 152.56 18.022 158.558 18.022 165.957C18.022 173.357 24.0202 179.355 31.4194 179.355Z" stroke="#CA7EC2"/>
    <path d="M93.9319 107.889C101.331 107.889 107.329 101.891 107.329 94.4919C107.329 87.0927 101.331 81.0945 93.9319 81.0945C86.5328 81.0945 80.5345 87.0927 80.5345 94.4919C80.5345 101.891 86.5328 107.889 93.9319 107.889Z" fill="#CA7EC2"/>
    <path d="M93.9319 107.889C101.331 107.889 107.329 101.891 107.329 94.4919C107.329 87.0927 101.331 81.0945 93.9319 81.0945C86.5328 81.0945 80.5345 87.0927 80.5345 94.4919C80.5345 101.891 86.5328 107.889 93.9319 107.889Z" stroke="#CA7EC2"/>
    <path d="M165.395 179.355C172.794 179.355 178.792 173.357 178.792 165.957C178.792 158.558 172.794 152.56 165.395 152.56C157.996 152.56 151.998 158.558 151.998 165.957C151.998 173.357 157.996 179.355 165.395 179.355Z" fill="#CA7EC2"/>
    <path d="M165.395 179.355C172.794 179.355 178.792 173.357 178.792 165.957C178.792 158.558 172.794 152.56 165.395 152.56C157.996 152.56 151.998 158.558 151.998 165.957C151.998 173.357 157.996 179.355 165.395 179.355Z" stroke="#CA7EC2"/>
    <path d="M236.843 107.889C244.242 107.889 250.24 101.891 250.24 94.4919C250.24 87.0927 244.242 81.0945 236.843 81.0945C229.444 81.0945 223.446 87.0927 223.446 94.4919C223.446 101.891 229.444 107.889 236.843 107.889Z" fill="#CA7EC2"/>
    <path d="M236.843 107.889C244.242 107.889 250.24 101.891 250.24 94.4919C250.24 87.0927 244.242 81.0945 236.843 81.0945C229.444 81.0945 223.446 87.0927 223.446 94.4919C223.446 101.891 229.444 107.889 236.843 107.889Z" stroke="#CA7EC2"/>
    <path d="M165.395 313.32C172.794 313.32 178.792 307.322 178.792 299.923C178.792 292.524 172.794 286.526 165.395 286.526C157.996 286.526 151.998 292.524 151.998 299.923C151.998 307.322 157.996 313.32 165.395 313.32Z" fill="#CA7EC2"/>
    <path d="M165.395 313.32C172.794 313.32 178.792 307.322 178.792 299.923C178.792 292.524 172.794 286.526 165.395 286.526C157.996 286.526 151.998 292.524 151.998 299.923C151.998 307.322 157.996 313.32 165.395 313.32Z" stroke="#CA7EC2"/>
    <path d="M236.843 250.803C244.242 250.803 250.24 244.805 250.24 237.405C250.24 230.006 244.242 224.008 236.843 224.008C229.444 224.008 223.446 230.006 223.446 237.405C223.446 244.805 229.444 250.803 236.843 250.803Z" fill="#CA7EC2"/>
    <path d="M236.843 250.803C244.242 250.803 250.24 244.805 250.24 237.405C250.24 230.006 244.242 224.008 236.843 224.008C229.444 224.008 223.446 230.006 223.446 237.405C223.446 244.805 229.444 250.803 236.843 250.803Z" stroke="#CA7EC2"/>
    <path d="M165.395 45.3793C172.794 45.3793 178.792 39.3811 178.792 31.9819C178.792 24.5827 172.794 18.5845 165.395 18.5845C157.996 18.5845 151.998 24.5827 151.998 31.9819C151.998 39.3811 157.996 45.3793 165.395 45.3793Z" fill="#CA7EC2"/>
    <path d="M165.395 45.3793C172.794 45.3793 178.792 39.3811 178.792 31.9819C178.792 24.5827 172.794 18.5845 165.395 18.5845C157.996 18.5845 151.998 24.5827 151.998 31.9819C151.998 39.3811 157.996 45.3793 165.395 45.3793Z" stroke="#CA7EC2"/>
    <path d="M31.4194 45.3793C38.8186 45.3793 44.8168 39.3811 44.8168 31.9819C44.8168 24.5827 38.8186 18.5845 31.4194 18.5845C24.0202 18.5845 18.022 24.5827 18.022 31.9819C18.022 39.3811 24.0202 45.3793 31.4194 45.3793Z" fill="#CA7EC2"/>
    <path d="M31.4194 45.3793C38.8186 45.3793 44.8168 39.3811 44.8168 31.9819C44.8168 24.5827 38.8186 18.5845 31.4194 18.5845C24.0202 18.5845 18.022 24.5827 18.022 31.9819C18.022 39.3811 24.0202 45.3793 31.4194 45.3793Z" stroke="#CA7EC2"/>
    <path d="M31.4194 313.32C38.8186 313.32 44.8168 307.322 44.8168 299.923C44.8168 292.524 38.8186 286.526 31.4194 286.526C24.0202 286.526 18.022 292.524 18.022 299.923C18.022 307.322 24.0202 313.32 31.4194 313.32Z" fill="#CA7EC2"/>
    <path d="M31.4194 313.32C38.8186 313.32 44.8168 307.322 44.8168 299.923C44.8168 292.524 38.8186 286.526 31.4194 286.526C24.0202 286.526 18.022 292.524 18.022 299.923C18.022 307.322 24.0202 313.32 31.4194 313.32Z" stroke="#CA7EC2"/>
    <path d="M299.36 313.32C306.76 313.32 312.758 307.322 312.758 299.923C312.758 292.524 306.76 286.526 299.36 286.526C291.961 286.526 285.963 292.524 285.963 299.923C285.963 307.322 291.961 313.32 299.36 313.32Z" fill="#CA7EC2"/>
    <path d="M299.36 313.32C306.76 313.32 312.758 307.322 312.758 299.923C312.758 292.524 306.76 286.526 299.36 286.526C291.961 286.526 285.963 292.524 285.963 299.923C285.963 307.322 291.961 313.32 299.36 313.32Z" stroke="#CA7EC2"/>
    <path d="M299.36 45.3793C306.76 45.3793 312.758 39.3811 312.758 31.9819C312.758 24.5827 306.76 18.5845 299.36 18.5845C291.961 18.5845 285.963 24.5827 285.963 31.9819C285.963 39.3811 291.961 45.3793 299.36 45.3793Z" fill="#CA7EC2"/>
    <path d="M299.36 45.3793C306.76 45.3793 312.758 39.3811 312.758 31.9819C312.758 24.5827 306.76 18.5845 299.36 18.5845C291.961 18.5845 285.963 24.5827 285.963 31.9819C285.963 39.3811 291.961 45.3793 299.36 45.3793Z" stroke="#CA7EC2"/>
    <path d="M299.36 179.355C306.76 179.355 312.758 173.357 312.758 165.957C312.758 158.558 306.76 152.56 299.36 152.56C291.961 152.56 285.963 158.558 285.963 165.957C285.963 173.357 291.961 179.355 299.36 179.355Z" fill="#CA7EC2"/>
    <path d="M299.36 179.355C306.76 179.355 312.758 173.357 312.758 165.957C312.758 158.558 306.76 152.56 299.36 152.56C291.961 152.56 285.963 158.558 285.963 165.957C285.963 173.357 291.961 179.355 299.36 179.355Z" stroke="#CA7EC2"/>
    <path fill-rule="evenodd" clip-rule="evenodd" d="M69.0039 28.2578C69.0039 13.0484 81.3335 0.71875 96.543 0.71875C111.752 0.71875 124.082 13.0484 124.082 28.2578V37.5051C124.082 42.9828 126.258 48.2366 130.131 52.1097L141.539 63.5171C145.412 67.3902 150.666 69.5664 156.143 69.5664H174.638C180.116 69.5664 185.369 67.3902 189.243 63.5171L200.65 52.1097C204.523 48.2366 206.699 42.9828 206.699 37.5051V28.2578C206.699 13.0484 219.029 0.71875 234.238 0.71875C249.448 0.71875 261.777 13.0484 261.777 28.2578V37.5051C261.777 42.9828 263.954 48.2366 267.827 52.1097L279.234 63.5171C283.107 67.3902 288.361 69.5664 293.839 69.5664H303.086C318.295 69.5664 330.625 81.896 330.625 97.1055C330.625 112.315 318.295 124.645 303.086 124.645C287.876 124.645 275.547 112.315 275.547 97.1055V87.8582C275.547 82.3804 273.371 77.1267 269.498 73.2536L258.09 61.8462C254.217 57.9731 248.963 55.7969 243.486 55.7969H224.991C219.513 55.7969 214.26 57.9731 210.386 61.8462L198.979 73.2536C195.106 77.1267 192.93 82.3804 192.93 87.8582V106.353C192.93 111.83 195.106 117.084 198.979 120.957L210.386 132.365C214.26 136.238 219.513 138.414 224.991 138.414H234.238C249.448 138.414 261.777 150.744 261.777 165.953V175.2C261.777 180.678 263.954 185.932 267.827 189.805L279.234 201.212C283.107 205.085 288.361 207.262 293.839 207.262H303.086C318.295 207.262 330.625 219.591 330.625 234.801C330.625 250.01 318.295 262.34 303.086 262.34H293.839C288.361 262.34 283.107 264.516 279.234 268.389L267.827 279.797C263.954 283.67 261.777 288.923 261.777 294.401V303.648C261.777 318.858 249.448 331.188 234.238 331.188C219.029 331.188 206.699 318.858 206.699 303.648V294.401C206.699 288.923 204.523 283.67 200.65 279.797L189.243 268.389C185.369 264.516 180.116 262.34 174.638 262.34H156.143C150.666 262.34 145.412 264.516 141.539 268.389L130.131 279.797C126.258 283.67 124.082 288.923 124.082 294.401V303.648C124.082 318.858 111.752 331.188 96.543 331.188C81.3335 331.188 69.0039 318.858 69.0039 303.648V294.401C69.0039 288.923 66.8277 283.67 62.9546 279.797L51.5472 268.389C47.6741 264.516 42.4203 262.34 36.9426 262.34H27.6953C12.4859 262.34 0.15625 250.01 0.15625 234.801C0.15625 219.591 12.4859 207.262 27.6953 207.262C42.9048 207.262 55.2344 219.591 55.2344 234.801V244.048C55.2344 249.526 57.4106 254.78 61.2837 258.653L72.6911 270.06C76.5642 273.933 81.8179 276.109 87.2957 276.109H105.79C111.268 276.109 116.522 273.933 120.395 270.06L131.802 258.653C135.675 254.78 137.852 249.526 137.852 244.048V225.553C137.852 220.076 135.675 214.822 131.802 210.949L120.395 199.542C116.522 195.668 111.268 193.492 105.79 193.492H96.543C81.3335 193.492 69.0039 181.163 69.0039 165.953C69.0039 150.744 81.3335 138.414 96.543 138.414H105.79C111.268 138.414 116.522 136.238 120.395 132.365L131.802 120.957C135.675 117.084 137.852 111.83 137.852 106.353V87.8582C137.852 82.3804 135.675 77.1267 131.802 73.2536L120.395 61.8462C116.522 57.9731 111.268 55.7969 105.79 55.7969H87.2957C81.8179 55.7969 76.5642 57.9731 72.6911 61.8462L61.2837 73.2536C57.4106 77.1267 55.2344 82.3804 55.2344 87.8582V97.1055C55.2344 112.315 42.9048 124.645 27.6953 124.645C12.4859 124.645 0.15625 112.315 0.15625 97.1055C0.15625 81.896 12.4859 69.5664 27.6953 69.5664H36.9426C42.4203 69.5664 47.6741 67.3902 51.5472 63.5171L62.9546 52.1097C66.8277 48.2366 69.0039 42.9828 69.0039 37.5051V28.2578ZM210.386 270.06C214.26 273.933 219.513 276.109 224.991 276.109H243.486C248.963 276.109 254.217 273.933 258.09 270.06L269.498 258.653C273.371 254.78 275.547 249.526 275.547 244.048V225.553C275.547 220.076 273.371 214.822 269.498 210.949L258.09 199.542C254.217 195.668 248.963 193.492 243.486 193.492H234.238C219.029 193.492 206.699 181.163 206.699 165.953V156.706C206.699 151.228 204.523 145.974 200.65 142.101L189.243 130.694C185.369 126.821 180.116 124.645 174.638 124.645H156.143C150.666 124.645 145.412 126.821 141.539 130.694L130.131 142.101C126.258 145.974 124.082 151.228 124.082 156.706V175.2C124.082 180.678 126.258 185.932 130.131 189.805L141.539 201.212C145.412 205.085 150.666 207.262 156.143 207.262H165.391C180.6 207.262 192.93 219.591 192.93 234.801V244.048C192.93 249.526 195.106 254.78 198.979 258.653L210.386 270.06Z" fill="#00C0B5"/>
</svg>
