<svg width="48" height="48" viewBox="0 0 48 48" fill="none" xmlns="http://www.w3.org/2000/svg">
<rect width="48" height="48" rx="24" fill="#392F75"/>
<path d="M19.3806 29.6422C19.8615 29.6422 20.2514 29.2523 20.2514 28.7713C20.2514 28.2904 19.8615 27.9005 19.3806 27.9005C18.8996 27.9005 18.5098 28.2904 18.5098 28.7713C18.5098 29.2523 18.8996 29.6422 19.3806 29.6422Z" fill="#CA7EC2"/>
<path d="M19.3806 29.6422C19.8615 29.6422 20.2514 29.2523 20.2514 28.7713C20.2514 28.2904 19.8615 27.9005 19.3806 27.9005C18.8996 27.9005 18.5098 28.2904 18.5098 28.7713C18.5098 29.2523 18.8996 29.6422 19.3806 29.6422Z" stroke="#CA7EC2"/>
<path d="M15.3172 24.9981C15.7982 24.9981 16.1881 24.6082 16.1881 24.1272C16.1881 23.6463 15.7982 23.2564 15.3172 23.2564C14.8363 23.2564 14.4464 23.6463 14.4464 24.1272C14.4464 24.6082 14.8363 24.9981 15.3172 24.9981Z" fill="#CA7EC2"/>
<path d="M15.3172 24.9981C15.7982 24.9981 16.1881 24.6082 16.1881 24.1272C16.1881 23.6463 15.7982 23.2564 15.3172 23.2564C14.8363 23.2564 14.4464 23.6463 14.4464 24.1272C14.4464 24.6082 14.8363 24.9981 15.3172 24.9981Z" stroke="#CA7EC2"/>
<path d="M19.3806 20.3528C19.8615 20.3528 20.2514 19.9629 20.2514 19.482C20.2514 19.001 19.8615 18.6111 19.3806 18.6111C18.8996 18.6111 18.5098 19.001 18.5098 19.482C18.5098 19.9629 18.8996 20.3528 19.3806 20.3528Z" fill="#CA7EC2"/>
<path d="M19.3806 20.3528C19.8615 20.3528 20.2514 19.9629 20.2514 19.482C20.2514 19.001 19.8615 18.6111 19.3806 18.6111C18.8996 18.6111 18.5098 19.001 18.5098 19.482C18.5098 19.9629 18.8996 20.3528 19.3806 20.3528Z" stroke="#CA7EC2"/>
<path d="M24.0256 24.9981C24.5066 24.9981 24.8964 24.6082 24.8964 24.1272C24.8964 23.6463 24.5066 23.2564 24.0256 23.2564C23.5447 23.2564 23.1548 23.6463 23.1548 24.1272C23.1548 24.6082 23.5447 24.9981 24.0256 24.9981Z" fill="#CA7EC2"/>
<path d="M24.0256 24.9981C24.5066 24.9981 24.8964 24.6082 24.8964 24.1272C24.8964 23.6463 24.5066 23.2564 24.0256 23.2564C23.5447 23.2564 23.1548 23.6463 23.1548 24.1272C23.1548 24.6082 23.5447 24.9981 24.0256 24.9981Z" stroke="#CA7EC2"/>
<path d="M28.6698 20.3528C29.1507 20.3528 29.5406 19.9629 29.5406 19.482C29.5406 19.001 29.1507 18.6111 28.6698 18.6111C28.1888 18.6111 27.799 19.001 27.799 19.482C27.799 19.9629 28.1888 20.3528 28.6698 20.3528Z" fill="#CA7EC2"/>
<path d="M28.6698 20.3528C29.1507 20.3528 29.5406 19.9629 29.5406 19.482C29.5406 19.001 29.1507 18.6111 28.6698 18.6111C28.1888 18.6111 27.799 19.001 27.799 19.482C27.799 19.9629 28.1888 20.3528 28.6698 20.3528Z" stroke="#CA7EC2"/>
<path d="M24.0256 33.7058C24.5066 33.7058 24.8964 33.3159 24.8964 32.835C24.8964 32.3541 24.5066 31.9642 24.0256 31.9642C23.5447 31.9642 23.1548 32.3541 23.1548 32.835C23.1548 33.3159 23.5447 33.7058 24.0256 33.7058Z" fill="#CA7EC2"/>
<path d="M24.0256 33.7058C24.5066 33.7058 24.8964 33.3159 24.8964 32.835C24.8964 32.3541 24.5066 31.9642 24.0256 31.9642C23.5447 31.9642 23.1548 32.3541 23.1548 32.835C23.1548 33.3159 23.5447 33.7058 24.0256 33.7058Z" stroke="#CA7EC2"/>
<path d="M28.6698 29.6422C29.1507 29.6422 29.5406 29.2523 29.5406 28.7713C29.5406 28.2904 29.1507 27.9005 28.6698 27.9005C28.1888 27.9005 27.799 28.2904 27.799 28.7713C27.799 29.2523 28.1888 29.6422 28.6698 29.6422Z" fill="#CA7EC2"/>
<path d="M28.6698 29.6422C29.1507 29.6422 29.5406 29.2523 29.5406 28.7713C29.5406 28.2904 29.1507 27.9005 28.6698 27.9005C28.1888 27.9005 27.799 28.2904 27.799 28.7713C27.799 29.2523 28.1888 29.6422 28.6698 29.6422Z" stroke="#CA7EC2"/>
<path d="M24.0256 16.2896C24.5066 16.2896 24.8964 15.8997 24.8964 15.4188C24.8964 14.9379 24.5066 14.548 24.0256 14.548C23.5447 14.548 23.1548 14.9379 23.1548 15.4188C23.1548 15.8997 23.5447 16.2896 24.0256 16.2896Z" fill="#CA7EC2"/>
<path d="M24.0256 16.2896C24.5066 16.2896 24.8964 15.8997 24.8964 15.4188C24.8964 14.9379 24.5066 14.548 24.0256 14.548C23.5447 14.548 23.1548 14.9379 23.1548 15.4188C23.1548 15.8997 23.5447 16.2896 24.0256 16.2896Z" stroke="#CA7EC2"/>
<path d="M15.3172 16.2896C15.7982 16.2896 16.1881 15.8997 16.1881 15.4188C16.1881 14.9379 15.7982 14.548 15.3172 14.548C14.8363 14.548 14.4464 14.9379 14.4464 15.4188C14.4464 15.8997 14.8363 16.2896 15.3172 16.2896Z" fill="#CA7EC2"/>
<path d="M15.3172 16.2896C15.7982 16.2896 16.1881 15.8997 16.1881 15.4188C16.1881 14.9379 15.7982 14.548 15.3172 14.548C14.8363 14.548 14.4464 14.9379 14.4464 15.4188C14.4464 15.8997 14.8363 16.2896 15.3172 16.2896Z" stroke="#CA7EC2"/>
<path d="M15.3172 33.7058C15.7982 33.7058 16.1881 33.3159 16.1881 32.835C16.1881 32.3541 15.7982 31.9642 15.3172 31.9642C14.8363 31.9642 14.4464 32.3541 14.4464 32.835C14.4464 33.3159 14.8363 33.7058 15.3172 33.7058Z" fill="#CA7EC2"/>
<path d="M15.3172 33.7058C15.7982 33.7058 16.1881 33.3159 16.1881 32.835C16.1881 32.3541 15.7982 31.9642 15.3172 31.9642C14.8363 31.9642 14.4464 32.3541 14.4464 32.835C14.4464 33.3159 14.8363 33.7058 15.3172 33.7058Z" stroke="#CA7EC2"/>
<path d="M32.7334 33.7058C33.2143 33.7058 33.6042 33.3159 33.6042 32.835C33.6042 32.3541 33.2143 31.9642 32.7334 31.9642C32.2524 31.9642 31.8625 32.3541 31.8625 32.835C31.8625 33.3159 32.2524 33.7058 32.7334 33.7058Z" fill="#CA7EC2"/>
<path d="M32.7334 33.7058C33.2143 33.7058 33.6042 33.3159 33.6042 32.835C33.6042 32.3541 33.2143 31.9642 32.7334 31.9642C32.2524 31.9642 31.8625 32.3541 31.8625 32.835C31.8625 33.3159 32.2524 33.7058 32.7334 33.7058Z" stroke="#CA7EC2"/>
<path d="M32.7334 16.2896C33.2143 16.2896 33.6042 15.8997 33.6042 15.4188C33.6042 14.9379 33.2143 14.548 32.7334 14.548C32.2524 14.548 31.8625 14.9379 31.8625 15.4188C31.8625 15.8997 32.2524 16.2896 32.7334 16.2896Z" fill="#CA7EC2"/>
<path d="M32.7334 16.2896C33.2143 16.2896 33.6042 15.8997 33.6042 15.4188C33.6042 14.9379 33.2143 14.548 32.7334 14.548C32.2524 14.548 31.8625 14.9379 31.8625 15.4188C31.8625 15.8997 32.2524 16.2896 32.7334 16.2896Z" stroke="#CA7EC2"/>
<path d="M32.7334 24.9981C33.2143 24.9981 33.6042 24.6082 33.6042 24.1272C33.6042 23.6463 33.2143 23.2564 32.7334 23.2564C32.2524 23.2564 31.8625 23.6463 31.8625 24.1272C31.8625 24.6082 32.2524 24.9981 32.7334 24.9981Z" fill="#CA7EC2"/>
<path d="M32.7334 24.9981C33.2143 24.9981 33.6042 24.6082 33.6042 24.1272C33.6042 23.6463 33.2143 23.2564 32.7334 23.2564C32.2524 23.2564 31.8625 23.6463 31.8625 24.1272C31.8625 24.6082 32.2524 24.9981 32.7334 24.9981Z" stroke="#CA7EC2"/>
<path fill-rule="evenodd" clip-rule="evenodd" d="M17.7603 15.1768C17.7603 14.1881 18.5617 13.3867 19.5503 13.3867C20.5389 13.3867 21.3403 14.1881 21.3403 15.1768V15.7778C21.3403 16.1339 21.4818 16.4754 21.7335 16.7271L22.475 17.4686C22.7268 17.7204 23.0683 17.8618 23.4243 17.8618H24.6265C24.9825 17.8618 25.324 17.7204 25.5758 17.4686L26.3172 16.7271C26.569 16.4754 26.7105 16.1339 26.7105 15.7778V15.1768C26.7105 14.1881 27.5119 13.3867 28.5005 13.3867C29.4891 13.3867 30.2905 14.1881 30.2905 15.1768V15.7778C30.2905 16.1339 30.432 16.4754 30.6837 16.7271L31.4252 17.4686C31.677 17.7204 32.0185 17.8618 32.3745 17.8618H32.9756C33.9642 17.8618 34.7656 18.6632 34.7656 19.6519C34.7656 20.6405 33.9642 21.4419 32.9756 21.4419C31.987 21.4419 31.1855 20.6405 31.1855 19.6519V19.0508C31.1855 18.6947 31.0441 18.3532 30.7923 18.1015L30.0509 17.36C29.7991 17.1083 29.4576 16.9668 29.1016 16.9668H27.8994C27.5434 16.9668 27.2019 17.1083 26.9501 17.36L26.2086 18.1015C25.9569 18.3532 25.8154 18.6947 25.8154 19.0508V20.2529C25.8154 20.609 25.9569 20.9505 26.2086 21.2022L26.9501 21.9437C27.2019 22.1955 27.5434 22.3369 27.8994 22.3369H28.5005C29.4891 22.3369 30.2905 23.1383 30.2905 24.127V24.728C30.2905 25.0841 30.432 25.4256 30.6837 25.6773L31.4252 26.4188C31.677 26.6706 32.0185 26.812 32.3745 26.812H32.9756C33.9642 26.812 34.7656 27.6134 34.7656 28.6021C34.7656 29.5907 33.9642 30.3921 32.9756 30.3921H32.3745C32.0185 30.3921 31.677 30.5335 31.4252 30.7853L30.6837 31.5268C30.432 31.7785 30.2905 32.12 30.2905 32.4761V33.0771C30.2905 34.0658 29.4891 34.8672 28.5005 34.8672C27.5119 34.8672 26.7105 34.0658 26.7105 33.0771V32.4761C26.7105 32.12 26.569 31.7785 26.3172 31.5268L25.5758 30.7853C25.324 30.5335 24.9825 30.3921 24.6265 30.3921H23.4243C23.0683 30.3921 22.7268 30.5335 22.475 30.7853L21.7335 31.5268C21.4818 31.7785 21.3403 32.12 21.3403 32.4761V33.0771C21.3403 34.0658 20.5389 34.8672 19.5503 34.8672C18.5617 34.8672 17.7603 34.0658 17.7603 33.0771V32.4761C17.7603 32.12 17.6188 31.7785 17.367 31.5268L16.6256 30.7853C16.3738 30.5335 16.0323 30.3921 15.6763 30.3921H15.0752C14.0866 30.3921 13.2852 29.5907 13.2852 28.6021C13.2852 27.6134 14.0866 26.812 15.0752 26.812C16.0638 26.812 16.8652 27.6134 16.8652 28.6021V29.2031C16.8652 29.5592 17.0067 29.9007 17.2584 30.1524L17.9999 30.8939C18.2517 31.1457 18.5932 31.2871 18.9492 31.2871H20.1514C20.5074 31.2871 20.8489 31.1457 21.1007 30.8939L21.8421 30.1524C22.0939 29.9007 22.2354 29.5592 22.2354 29.2031V28.001C22.2354 27.6449 22.0939 27.3034 21.8421 27.0517L21.1007 26.3102C20.8489 26.0584 20.5074 25.917 20.1514 25.917H19.5503C18.5617 25.917 17.7603 25.1156 17.7603 24.127C17.7603 23.1383 18.5617 22.3369 19.5503 22.3369H20.1514C20.5074 22.3369 20.8489 22.1955 21.1007 21.9437L21.8421 21.2022C22.0939 20.9505 22.2354 20.609 22.2354 20.2529V19.0508C22.2354 18.6947 22.0939 18.3532 21.8421 18.1015L21.1007 17.36C20.8489 17.1083 20.5074 16.9668 20.1514 16.9668H18.9492C18.5932 16.9668 18.2517 17.1083 17.9999 17.36L17.2584 18.1015C17.0067 18.3532 16.8652 18.6947 16.8652 19.0508V19.6519C16.8652 20.6405 16.0638 21.4419 15.0752 21.4419C14.0866 21.4419 13.2852 20.6405 13.2852 19.6519C13.2852 18.6632 14.0866 17.8618 15.0752 17.8618H15.6763C16.0323 17.8618 16.3738 17.7204 16.6256 17.4686L17.367 16.7271C17.6188 16.4754 17.7603 16.1339 17.7603 15.7778V15.1768ZM26.9501 30.8939C27.2019 31.1457 27.5434 31.2871 27.8994 31.2871H29.1016C29.4576 31.2871 29.7991 31.1457 30.0509 30.8939L30.7923 30.1524C31.0441 29.9007 31.1855 29.5592 31.1855 29.2031V28.001C31.1855 27.6449 31.0441 27.3034 30.7923 27.0517L30.0509 26.3102C29.7991 26.0584 29.4576 25.917 29.1016 25.917H28.5005C27.5119 25.917 26.7105 25.1156 26.7105 24.127V23.5259C26.7105 23.1698 26.569 22.8283 26.3172 22.5766L25.5758 21.8351C25.324 21.5834 24.9825 21.4419 24.6265 21.4419H23.4243C23.0683 21.4419 22.7268 21.5834 22.475 21.8351L21.7335 22.5766C21.4818 22.8283 21.3403 23.1698 21.3403 23.5259V24.728C21.3403 25.0841 21.4818 25.4256 21.7335 25.6773L22.475 26.4188C22.7268 26.6706 23.0683 26.812 23.4243 26.812H24.0254C25.014 26.812 25.8154 27.6134 25.8154 28.6021V29.2031C25.8154 29.5592 25.9569 29.9007 26.2086 30.1524L26.9501 30.8939Z" fill="#00C0B5"/>
</svg>
